<svg width="91" height="19" viewBox="0 0 91 19" fill="none" xmlns="http://www.w3.org/2000/svg">
<path d="M4.41406 0.9375V18H0.300781V0.9375H4.41406ZM14.5977 0.9375L7.98828 9.58594L4.12109 13.8164L3.37109 10.043L5.84375 6.29297L9.52344 0.9375H14.5977ZM9.73438 18L5.32812 10.3125L8.52734 7.95703L14.5977 18H9.73438ZM15.6523 0.9375H22.3672C23.6797 0.9375 24.8203 1.13281 25.7891 1.52344C26.7578 1.91406 27.5039 2.49219 28.0273 3.25781C28.5586 4.02344 28.8242 4.96875 28.8242 6.09375C28.8242 7.07031 28.6719 7.88672 28.3672 8.54297C28.0625 9.19922 27.6367 9.74219 27.0898 10.1719C26.5508 10.5938 25.9219 10.9414 25.2031 11.2148L23.8555 11.9766H18.2188L18.1953 8.80078H22.3672C22.8906 8.80078 23.3242 8.70703 23.668 8.51953C24.0117 8.33203 24.2695 8.06641 24.4414 7.72266C24.6211 7.37109 24.7109 6.95312 24.7109 6.46875C24.7109 5.97656 24.6211 5.55469 24.4414 5.20312C24.2617 4.85156 23.9961 4.58203 23.6445 4.39453C23.3008 4.20703 22.875 4.11328 22.3672 4.11328H19.7656V18H15.6523V0.9375ZM24.9922 18L21.2188 10.4531L25.5781 10.4297L29.3984 17.8242V18H24.9922ZM33.8398 0.9375L36.9805 8.34375L40.1328 0.9375H44.5625L39.0781 11.8711V18H34.8945V11.8711L29.3984 0.9375H33.8398ZM52.625 12.2109H48.3828V9.03516H52.625C53.2031 9.03516 53.6719 8.9375 54.0312 8.74219C54.3906 8.54688 54.6523 8.27734 54.8164 7.93359C54.9883 7.58203 55.0742 7.1875 55.0742 6.75C55.0742 6.28125 54.9883 5.84766 54.8164 5.44922C54.6523 5.05078 54.3906 4.73047 54.0312 4.48828C53.6719 4.23828 53.2031 4.11328 52.625 4.11328H49.9297V18H45.8164V0.9375H52.625C53.9922 0.9375 55.168 1.1875 56.1523 1.6875C57.1445 2.1875 57.9062 2.875 58.4375 3.75C58.9688 4.61719 59.2344 5.60938 59.2344 6.72656C59.2344 7.82812 58.9688 8.78906 58.4375 9.60938C57.9062 10.4297 57.1445 11.0703 56.1523 11.5312C55.168 11.9844 53.9922 12.2109 52.625 12.2109ZM69.7109 0.9375V18H65.5977V0.9375H69.7109ZM74.8438 0.9375V4.11328H60.582V0.9375H74.8438ZM90.6992 9.12891V9.82031C90.6992 11.125 90.5156 12.2969 90.1484 13.3359C89.7891 14.3672 89.2773 15.25 88.6133 15.9844C87.9492 16.7109 87.1641 17.2695 86.2578 17.6602C85.3516 18.043 84.3516 18.2344 83.2578 18.2344C82.1562 18.2344 81.1484 18.043 80.2344 17.6602C79.3281 17.2695 78.5391 16.7109 77.8672 15.9844C77.2031 15.25 76.6875 14.3672 76.3203 13.3359C75.9609 12.2969 75.7812 11.125 75.7812 9.82031V9.12891C75.7812 7.82422 75.9609 6.65234 76.3203 5.61328C76.6875 4.57422 77.1992 3.69141 77.8555 2.96484C78.5195 2.23047 79.3047 1.67188 80.2109 1.28906C81.125 0.898438 82.1328 0.703125 83.2344 0.703125C84.3281 0.703125 85.3281 0.898438 86.2344 1.28906C87.1484 1.67188 87.9375 2.23047 88.6016 2.96484C89.2656 3.69141 89.7812 4.57422 90.1484 5.61328C90.5156 6.65234 90.6992 7.82422 90.6992 9.12891ZM86.5273 9.82031V9.10547C86.5273 8.26172 86.4531 7.51953 86.3047 6.87891C86.1641 6.23047 85.9531 5.6875 85.6719 5.25C85.3906 4.8125 85.043 4.48438 84.6289 4.26562C84.2227 4.03906 83.7578 3.92578 83.2344 3.92578C82.6875 3.92578 82.2109 4.03906 81.8047 4.26562C81.3984 4.48438 81.0586 4.8125 80.7852 5.25C80.5117 5.6875 80.3047 6.23047 80.1641 6.87891C80.0312 7.51953 79.9648 8.26172 79.9648 9.10547V9.82031C79.9648 10.6562 80.0312 11.3984 80.1641 12.0469C80.3047 12.6875 80.5117 13.2305 80.7852 13.6758C81.0664 14.1211 81.4102 14.457 81.8164 14.6836C82.2305 14.9102 82.7109 15.0234 83.2578 15.0234C83.7812 15.0234 84.2461 14.9102 84.6523 14.6836C85.0586 14.457 85.3984 14.1211 85.6719 13.6758C85.9531 13.2305 86.1641 12.6875 86.3047 12.0469C86.4531 11.3984 86.5273 10.6562 86.5273 9.82031Z" fill="white"/>
</svg>
